# xmcd CD database file
#
# Track frame offsets:
#	150
#	12231
#	25034
#	39075
#	54263
#	66782
#	80772
#	91771
#	104969
#	118939
#	133581
#	146415
#	158845
#	171921
#	186231
#	198197
#	209512
#	222694
#	235847
#	251417
#
# Disc length: 3536 seconds
#
# Revision: 1
# Processed by: cddbd v1.5.2PL0 Copyright (c) Steve Scherf et al.
# Submitted via: CDex 1.70beta2
#
DISCID=1d0dce14
DTITLE=Django Reinhardt - 100 Swinging Greats! CD 1
DYEAR=2007
DGENRE=Blues
TTITLE0=Oriental Shuffle
TTITLE1=Are You In The Mood?
TTITLE2=I'se a Muggin'
TTITLE3=I Can't Give You Anything But Love
TTITLE4=Limehouse Blues
TTITLE5=After You've Gone
TTITLE6=Swing Guitars
TTITLE7=Shine
TTITLE8=In The Still Of The Night
TTITLE9=Georgia On My Mind
TTITLE10=Nagasaki
TTITLE11=Sweet Chorus
TTITLE12=Charleston
TTITLE13=Solitude
TTITLE14=Tears
TTITLE15=Exactly Like You
TTITLE16=You're Driving Me Crazy
TTITLE17=Ain't Misbehaving
TTITLE18=Body And Soul
TTITLE19=Hot Lips
EXTD=YEAR: 2007
EXTT0=
EXTT1=
EXTT2=
EXTT3=
EXTT4=
EXTT5=
EXTT6=
EXTT7=
EXTT8=
EXTT9=
EXTT10=
EXTT11=
EXTT12=
EXTT13=
EXTT14=
EXTT15=
EXTT16=
EXTT17=
EXTT18=
EXTT19=
PLAYORDER=
